<?xml version="1.0" encoding="UTF-8" standalone="no"?>
<!-- Created with Inkscape (http://www.inkscape.org/) -->

<svg
   xmlns:dc="http://purl.org/dc/elements/1.1/"
   xmlns:cc="http://creativecommons.org/ns#"
   xmlns:rdf="http://www.w3.org/1999/02/22-rdf-syntax-ns#"
   xmlns:svg="http://www.w3.org/2000/svg"
   xmlns="http://www.w3.org/2000/svg"
   xmlns:sodipodi="http://sodipodi.sourceforge.net/DTD/sodipodi-0.dtd"
   xmlns:inkscape="http://www.inkscape.org/namespaces/inkscape"
   version="1.1"
   id="svg2"
   xml:space="preserve"
   width="200"
   height="50"
   viewBox="0 0 199.99999 50"
   sodipodi:docname="carleon-20180131B.svg"
   inkscape:version="0.92.2 (5c3e80d, 2017-08-06)"><metadata
     id="metadata8"><rdf:RDF><cc:Work
         rdf:about=""><dc:format>image/svg+xml</dc:format><dc:type
           rdf:resource="http://purl.org/dc/dcmitype/StillImage" /><dc:title></dc:title></cc:Work></rdf:RDF></metadata><defs
     id="defs6"><clipPath
       clipPathUnits="userSpaceOnUse"
       id="clipPath18"><path
         d="M 0,790.87 H 1417.32 V 0 H 0 Z"
         id="path16"
         inkscape:connector-curvature="0" /></clipPath><clipPath
       clipPathUnits="userSpaceOnUse"
       id="clipPath60"><path
         d="M 0,790.87 H 1417.32 V 0 H 0 Z"
         id="path58"
         inkscape:connector-curvature="0" /></clipPath></defs><sodipodi:namedview
     pagecolor="#ffffff"
     bordercolor="#666666"
     borderopacity="1"
     objecttolerance="10"
     gridtolerance="10"
     guidetolerance="10"
     inkscape:pageopacity="0"
     inkscape:pageshadow="2"
     inkscape:window-width="1920"
     inkscape:window-height="1017"
     id="namedview4"
     showgrid="false"
     inkscape:zoom="6.4346795"
     inkscape:cx="99.017007"
     inkscape:cy="7.2145102"
     inkscape:window-x="-8"
     inkscape:window-y="-8"
     inkscape:window-maximized="1"
     inkscape:current-layer="layer2"
     fit-margin-top="0"
     fit-margin-left="0"
     fit-margin-right="0"
     fit-margin-bottom="0" /><g
     inkscape:groupmode="layer"
     id="layer1"
     inkscape:label="carleon BKG"
     transform="translate(-386.81271,-672.91437)"
     style="display:none"><rect
       style="fill:#008080;fill-opacity:1;stroke-width:0.06933398"
       id="rect4593"
       width="197.78197"
       height="48.409534"
       x="388.1958"
       y="673.89874"
       ry="0.92698109" /></g><g
     id="g10"
     inkscape:groupmode="layer"
     inkscape:label="carleon"
     transform="matrix(1.3333333,0,0,-1.3333333,-386.81271,381.57896)"><g
       id="g24"
       transform="translate(678.9444,402.9318)" /><g
       id="g44"
       transform="translate(644.8476,334.7599)"><path
         d="M 0,0 C 2.239,-6.201 3.665,-10.153 5.673,-15.714"
         style="fill:#000000;fill-opacity:1;fill-rule:nonzero;stroke:none"
         id="path46"
         inkscape:connector-curvature="0" /></g><g
       id="g4608"
       transform="matrix(0.19727577,0,0,0.18306026,219.66937,197.2825)"><path
         inkscape:connector-curvature="0"
         id="path26"
         style="fill:#ffffff;fill-opacity:1;fill-rule:nonzero;stroke:none"
         d="m 0,0 c -32.751,3.631 -65.424,8.958 -98.273,10.488 -47.446,2.21 -95.019,1.786 -142.541,2.218 -12.038,0.109 -24.083,-0.918 -36.129,-1.155 -3.602,-0.07 -7.221,0.77 -10.694,3.313 54.611,1.529 109.222,3.057 162.912,4.56 0,2.22 -1.216,6.735 0.324,9.916 1.717,3.546 5.484,7.427 9.14,8.5 C -80.286,48.1 -44.604,52.988 -8.15,49.082 11.871,46.937 28.146,37.025 43.284,22.123 35.077,20.289 26.765,17.779 29.694,8.638 31.121,4.183 37.815,1.415 42.848,-2.71 28.918,-4.401 14.305,-2.25 -0.326,0.194 c 9.734,0.01 19.489,0.01 26.85,0.01 1.083,8.081 2.135,15.926 3.4,25.368 -1.335,0.84 -4.296,3.237 -7.657,4.73 -21.848,9.705 -44.927,9.44 -68.082,7.745 -1.854,-0.136 -4.565,-2.429 -5.105,-4.246 -2.22,-7.475 -3.755,-15.154 -5.708,-23.463 4.353,-0.943 7.664,-1.773 11.017,-2.367 C -30.414,5.277 -15.205,2.651 0,0"
         transform="translate(678.9444,402.9318)" /><path
         d="m 708.8153,446.524 c 1.226,1.95 2.686,4.272 4.672,7.432 -16.884,8.377 -34.95,11.106 -53.048,12.474 -51.64,3.905 -101.523,-6.521 -150.932,-19.983 -27.814,-7.579 -55.72,-14.856 -83.339,-23.093 -16.221,-4.837 -32.023,-1.927 -48.022,-0.131 -2.45,0.275 -4.867,0.848 -8.084,1.424 0.215,-3.377 0.385,-6.047 0.556,-8.716 -0.513,-0.154 -1.025,-0.309 -1.537,-0.463 -1.368,4.261 -2.736,8.522 -4.557,14.195 7.649,-1.363 13.509,-2.095 19.212,-3.479 21.315,-5.174 41.277,0.809 61.541,6.39 34.509,9.503 68.99,19.384 103.965,26.849 44.368,9.47 89.167,16.206 134.769,7.083 21.794,-4.36 41.352,-13.828 60.872,-23.696 22.064,-11.155 44.132,-22.303 66.176,-33.498 1.049,-0.533 2.882,-1.492 5.75,-3.829 -4.826,-1.844 -9.148,-4.118 -12.543,-4.232 -12.993,-0.436 -26.022,-0.495 -39.01,0.021 -3.722,0.148 -8.088,1.857 -10.897,4.301 -15.262,13.275 -30.129,27.005 -45.544,40.951"
         style="fill:#ffffff;fill-opacity:1;fill-rule:nonzero;stroke:none"
         id="path30"
         inkscape:connector-curvature="0" /><g
         transform="translate(1028.298,375.2827)"
         id="g32"><path
           inkscape:connector-curvature="0"
           id="path34"
           style="fill:#ffffff;fill-opacity:1;fill-rule:nonzero;stroke:none"
           d="M 0,0 C 36.556,-24.677 52.961,-38.186 68.545,-35.665 49.195,-16.245 27.791,-1.867 0,0 m -217.337,26.375 c 3.401,0.937 10.867,3.859 14.196,3.65 19.487,-1.224 38.954,-2.827 58.409,-4.526 40.405,-3.527 81.062,-5.411 121.118,-11.332 36.176,-5.347 69.406,-19.919 95.764,-46.739 4.64,-4.721 7.997,-10.703 11.947,-16.103 -0.541,-0.881 -1.082,-1.761 -1.623,-2.641 h -231.208 c -0.018,1.123 -0.036,2.246 -0.055,3.37 H 75.026 c 0.207,1.5 0.415,3 0.623,4.5 -5.09,1.428 -10.114,3.719 -15.283,4.116 -13.248,1.019 -23.929,7.177 -34.531,14.482 -14.833,10.221 -29.409,21.371 -45.594,28.904 -14.041,6.536 -29.983,11.004 -45.406,12.177 -46.777,3.561 -93.71,5.073 -140.58,7.418" /></g><g
         id="g54"><g
           clip-path="url(#clipPath60)"
           id="g56"><path
             inkscape:connector-curvature="0"
             id="path62"
             style="fill:#ffffff;fill-opacity:1;fill-rule:nonzero;stroke:none"
             d="M 583.11,322.972 H 374.344 v 4.252 H 583.11 Z" /></g></g></g></g><g
     inkscape:groupmode="layer"
     id="layer2"
     inkscape:label="carleon TXT"
     transform="translate(-386.81271,-672.91437)"><text
       xml:space="preserve"
       style="font-style:normal;font-variant:normal;font-weight:normal;font-stretch:normal;font-size:13.65137005px;line-height:125%;font-family:'Segoe UI';-inkscape-font-specification:'Segoe UI';letter-spacing:0px;word-spacing:0px;fill:#ffffff;fill-opacity:1;stroke:none;stroke-width:0.18283081px;stroke-linecap:butt;stroke-linejoin:miter;stroke-opacity:1"
       x="433.70892"
       y="733.4007"
       id="text4598"
       transform="scale(1.0299825,0.97089025)"><tspan
         sodipodi:role="line"
         id="tspan4596"
         x="433.70892"
         y="733.4007"
         style="stroke-width:0.18283081px">CARLEON40</tspan></text>
</g></svg>